# xmcd
#
# Track frame offsets:
#	150
#	13755
#	25405
#	39865
#	51490
#	63595
#	79882
#	92590
#	108417
#	123532
#	135020
#	146865
#	159810
#	175535
#	192472
#	203082
#	215930
#	226130
#
# Disc length: 3193 seconds
#
# Revision: 2
# Processed by: cddbd v1.5.2PL0 Copyright (c) Steve Scherf et al.
# Submitted via: EasyCDDAExtractor 15.2.5.1
#
DISCID=f70c7712
DTITLE=Various Artist - Country Music's Golden Hit Parade  [CD 4)
DYEAR=1992
DGENRE=Country
TTITLE0=Glen Campbell - Southern Nights
TTITLE1=Diana Trask - Oh Boy
TTITLE2=Kenny Rogers - Daytime Friends
TTITLE3=Crystal Gayle - Don't It Make My Brown Eyes Blue
TTITLE4=Donna Fargo - Funny Face
TTITLE5=The Charlie Daniels Band - The Devil Went Down To Georgia
TTITLE6=Jud Strunk - Daisy A Day
TTITLE7=Peters and Lee - Welcome Home
TTITLE8=Billie Jo Spears - I Will Survive
TTITLE9=Johnny Ashcroft - Playground Of My Mind
TTITLE10=Tammy Wynette - I Don't Wanna Play House
TTITLE11=Jack Blanchard and Misty Morgan - Tennessee Birdwalk
TTITLE12=Ray Stevens - Everything Is Beautiful
TTITLE13=Johnny Cash - A Boy Named Sue
TTITLE14=Jim Reeves - He'll Have To Go
TTITLE15=Don Williams - You're My Best Friend
TTITLE16=Conway Twitty - Lonely Blue Boy
TTITLE17=Faron Young - It's Four In The Morning
EXTD=
EXTT0=
EXTT1=
EXTT2=
EXTT3=
EXTT4=
EXTT5=
EXTT6=
EXTT7=
EXTT8=
EXTT9=
EXTT10=
EXTT11=
EXTT12=
EXTT13=
EXTT14=
EXTT15=
EXTT16=
EXTT17=
PLAYORDER=
